<svg width="770" height="570" viewBox="0 0 770 570" fill="none" xmlns="http://www.w3.org/2000/svg">
    <path
        d="M727.41 293.479H285.817C281.303 293.479 277.639 289.824 277.639 285.302C277.639 280.788 281.303 277.124 285.817 277.124H727.41C731.932 277.124 735.588 280.788 735.588 285.302C735.588 289.816 731.932 293.479 727.41 293.479ZM284.705 526.698C151.262 526.698 42.7037 418.442 42.7037 284.999C42.7037 151.573 151.262 42.5483 284.705 42.5483C413.037 42.5483 518.316 146.282 526.174 268.946H568.993C561.117 121.749 436.858 0 284.705 0C127.465 0 0 127.776 0 284.999C0 442.239 127.465 569.246 284.705 569.246C436.04 569.246 559.744 448.847 568.813 301.649H525.994C516.966 424.322 412.227 526.698 284.705 526.698ZM284.705 409.259C216.021 409.259 160.143 353.691 160.143 284.999C160.143 216.332 216.021 159.987 284.705 159.987C348.245 159.987 400.729 211.695 408.236 268.938H444.079C436.408 187.162 367.88 124.562 284.705 124.562C196.394 124.562 124.554 196.697 124.554 284.999C124.554 373.301 196.394 444.7 284.705 444.7C367.062 444.7 435.059 383.434 443.834 301.657H407.885C399.306 367.078 347.411 409.259 284.705 409.259ZM269.462 285.302C269.462 276.282 276.797 268.946 285.817 268.946H308.714C303.661 260.769 294.821 256.23 284.705 256.23C269.004 256.23 256.23 269.306 256.23 284.999C256.23 300.692 269.004 313.024 284.705 313.024C293.749 313.024 301.731 309.827 306.948 301.649H285.817C276.797 301.657 269.462 294.322 269.462 285.302ZM732.693 269.821L769.181 219.881H728.637L694.961 246.303L709.256 219.881H658.333L622.548 268.946H727.41C729.266 268.946 731.024 269.249 732.693 269.821ZM769.435 342.545L732.922 299.147C731.196 299.768 729.348 301.657 727.41 301.657H622.916L658.587 342.545H718.39L714.882 330.107L737.787 342.545H769.435Z"
        fill="#4F966E" />
</svg>