<svg width="24" height="24" viewBox="0 0 24 24" fill="none" xmlns="http://www.w3.org/2000/svg">
<mask id="mask0_291_309" style="mask-type:alpha" maskUnits="userSpaceOnUse" x="0" y="0" width="24" height="24">
<path d="M11.9999 2.40002C6.6983 2.40002 2.3999 6.69842 2.3999 12C2.3999 13.801 2.90578 15.4801 3.76865 16.9203L2.48584 21.6L7.26553 20.3453C8.66339 21.1401 10.2771 21.6 11.9999 21.6C17.3015 21.6 21.5999 17.3016 21.5999 12C21.5999 6.69842 17.3015 2.40002 11.9999 2.40002ZM8.71396 7.5219C8.86997 7.5219 9.03025 7.52095 9.16865 7.52815C9.33985 7.53215 9.52619 7.54469 9.70459 7.93909C9.91659 8.40789 10.3782 9.58395 10.4374 9.70315C10.4966 9.82235 10.5386 9.96277 10.4562 10.1188C10.3778 10.2788 10.337 10.3756 10.2218 10.5172C10.1026 10.6548 9.97196 10.8257 9.86397 10.9297C9.74476 11.0489 9.62168 11.1796 9.75928 11.4172C9.89688 11.6548 10.3748 12.4337 11.0812 13.0625C11.9892 13.8737 12.7553 14.123 12.9937 14.2422C13.2321 14.3614 13.3701 14.3428 13.5077 14.1828C13.6493 14.0268 14.1024 13.4915 14.2624 13.2531C14.4184 13.0147 14.5777 13.056 14.7937 13.1344C15.0129 13.2128 16.1818 13.7886 16.4202 13.9078C16.6586 14.027 16.8149 14.086 16.8749 14.1828C16.9365 14.2828 16.9366 14.7589 16.739 15.3141C16.5414 15.8685 15.571 16.4046 15.1358 16.4422C14.6966 16.483 14.2868 16.6396 12.2812 15.85C9.86195 14.8972 8.33629 12.4194 8.21709 12.2594C8.09789 12.1034 7.24834 10.9711 7.24834 9.80315C7.24834 8.63115 7.86283 8.05717 8.07803 7.81877C8.29723 7.58037 8.55397 7.5219 8.71396 7.5219Z" fill="white"/>
</mask>
<g mask="url(#mask0_291_309)">
<rect x="-5" y="-6" width="42" height="45" fill="#333333"/>
</g>
</svg>
